<?xml version="1.0" encoding="UTF-8"?><svg id="OBJECTS" xmlns="http://www.w3.org/2000/svg" xmlns:xlink="http://www.w3.org/1999/xlink" viewBox="0 0 86.03 86.6"><defs><style>.cls-1{fill:#f2f0c9;}.cls-2{fill:url(#Dégradé_sans_nom_61);}.cls-3{fill:url(#Dégradé_sans_nom_3);}</style><linearGradient id="Dégradé_sans_nom_3" x1="18.77" y1="85.83" x2="64.48" y2="6.66" gradientUnits="userSpaceOnUse"><stop offset="0" stop-color="#205648"/><stop offset="1" stop-color="#b9d946"/></linearGradient><linearGradient id="Dégradé_sans_nom_61" x1="7.2" y1="-98.61" x2="7.2" y2="-170.67" gradientTransform="translate(-60.12 135.91) rotate(45)" gradientUnits="userSpaceOnUse"><stop offset="0" stop-color="#205648"/><stop offset="1" stop-color="#b9d946"/></linearGradient></defs><path class="cls-1" d="m18.29,81.84c-.84-.84-1.43-1.9-1.75-3.16-.54-2.11-1.14-4.48-1.74-6.9-2.05-.51-4.1-1.03-6.09-1.53l-.59-.15c-1.38-.35-2.51-.96-3.38-1.83-1.92-1.92-2.67-5.32,0-8.56l.38-.46c.88-1.07,1.7-2.08,2.48-3.11,1.83-2.45,4.5-3.51,7.52-2.97,1.37.25,2.75.44,4.2.65l.29.04c3.65-5.09,7.7-9.79,12.15-14.81-.92-.92-7.85-7.85-7.85-7.85-2.8-2.8-5.6-5.6-8.41-8.38l-.05-.05c-2.46-2.46-3.13-5.61-1.84-8.63l.37-.88,2.02-2.02.53-.31c2.96-1.77,5.94-1.18,6.91-.99,4.08.79,7.7,1.46,11.06,2.04,2.48.42,4.65,1.55,6.45,3.35l.06.06c1.56,1.58,3.13,3.15,4.7,4.72l.02.02c.32-.46.7-.91,1.13-1.34l.54-.54c.39-.39.78-.78,1.17-1.17.26-.26.53-.49.81-.7-1.08-1.23-2.02-2.42-2.89-3.65-.31-.44-.91-1.27-1.22-2.45-.58-2.17-.15-4.22,1.21-5.63l.08-.08c1.79-1.79,4.9-2.1,7.08-.71,1.05.67,2.36,1.51,3.57,2.54,1.66,1.41,3.23,2.86,4.68,4.3s2.81,2.93,4.07,4.44c1.5.31,2.54,1.04,3.21,1.71s1.4,1.71,1.72,3.22c1.64,1.38,3.19,2.81,4.63,4.24,2.07,2.07,3.98,4.25,5.68,6.49.59.78,1.07,1.62,1.43,2.5.73,1.81.63,4.43-1.21,6.22-1.83,1.77-4.9,2.04-7.03.59l-.42-.28c-1.1-.73-2.35-1.56-3.53-2.56-.17-.15-.34-.29-.52-.44-.19.25-.4.5-.63.74-.73.76-1.47,1.51-2.22,2.22-.29.28-.6.53-.92.76l.85.85c1.22,1.22,2.44,2.44,3.67,3.66l.05.05c1.73,1.73,2.82,3.81,3.24,6.18.6,3.44,1.26,6.93,1.89,10.31l.3,1.59c.49,2.62-.11,5.05-1.73,7.04-1.37,1.7-3.26,2.7-5.31,2.81-2.04.11-4.02-.67-5.58-2.2-.65-.65-1.29-1.28-1.93-1.92l-3.81-3.81-10.49-10.49c-.63.54-1.27,1.08-1.9,1.62-3.09,2.64-6.29,5.36-9.48,8.01-1.07.89-2.16,1.68-3.23,2.44.04.3.09.6.13.9.2,1.4.4,2.71.62,4.04.49,2.88-.5,5.45-2.79,7.22-.86.66-1.69,1.33-2.57,2.05-.48.39-.95.77-1.43,1.16-2.65,2.14-6.09,2.06-8.36-.21Z"/><path class="cls-3" d="m50.56,3c1.08,0,2.16.28,3.07.87,1.05.67,2.36,1.51,3.57,2.54,1.66,1.41,3.23,2.86,4.68,4.3,1.44,1.44,2.81,2.93,4.07,4.44,1.5.31,2.54,1.04,3.21,1.71.67.67,1.41,1.71,1.72,3.22,1.64,1.38,3.19,2.81,4.63,4.24,2.07,2.07,3.98,4.25,5.68,6.49.59.78,1.07,1.62,1.43,2.5.73,1.81.63,4.43-1.21,6.22-1.04,1-2.47,1.52-3.91,1.52-1.1,0-2.2-.31-3.12-.93l-.42-.28c-1.1-.73-2.35-1.56-3.53-2.56-.17-.15-.34-.29-.52-.44-.19.25-.4.5-.63.74-.73.76-1.47,1.51-2.22,2.22-.29.28-.6.53-.92.76l.85.85c1.22,1.22,2.44,2.44,3.67,3.66l.05.05c1.73,1.73,2.82,3.81,3.24,6.18.6,3.44,1.26,6.93,1.89,10.31l.3,1.59c.49,2.62-.11,5.05-1.73,7.04-1.37,1.7-3.26,2.7-5.31,2.81-.13,0-.26.01-.39.01-1.9,0-3.73-.78-5.19-2.21-.65-.65-1.29-1.28-1.93-1.92l-3.81-3.81-10.49-10.49c-.63.54-1.27,1.08-1.9,1.62-3.09,2.64-6.29,5.36-9.48,8.01-1.07.89-2.16,1.68-3.23,2.44.04.3.09.6.13.9.2,1.4.4,2.71.62,4.04.49,2.88-.5,5.45-2.79,7.22-.86.66-1.69,1.33-2.57,2.05-.48.39-.95.77-1.43,1.16-1.28,1.03-2.75,1.55-4.18,1.55-1.53,0-3.01-.59-4.18-1.75-.84-.84-1.43-1.9-1.75-3.16-.54-2.11-1.14-4.48-1.74-6.9-2.05-.51-4.1-1.03-6.09-1.53l-.59-.15c-1.38-.35-2.51-.96-3.38-1.83-1.92-1.92-2.67-5.32,0-8.56l.38-.46c.88-1.07,1.7-2.08,2.48-3.11,1.52-2.03,3.62-3.11,6.01-3.11.49,0,1,.05,1.51.14,1.37.25,2.75.44,4.2.65.1.01.19.03.29.04,3.65-5.09,7.7-9.79,12.15-14.81-.92-.92-7.85-7.85-7.85-7.85-2.8-2.8-5.6-5.6-8.41-8.38l-.05-.05c-2.46-2.46-3.13-5.61-1.84-8.63l.37-.88,2.02-2.02.53-.31c1.65-.98,3.3-1.24,4.61-1.24,1.04,0,1.87.16,2.3.25,4.08.79,7.7,1.46,11.06,2.04,2.48.42,4.65,1.55,6.45,3.35l.06.06c1.56,1.58,3.13,3.15,4.7,4.72l.02.02c.32-.46.7-.91,1.13-1.34l.54-.54c.39-.39.78-.78,1.17-1.17.26-.26.53-.49.81-.7-1.08-1.23-2.02-2.42-2.89-3.65-.31-.44-.91-1.27-1.22-2.45-.58-2.17-.15-4.22,1.21-5.63l.08-.08c1.04-1.04,2.52-1.58,4-1.58m0-3c-2.33,0-4.57.89-6.13,2.45l-.1.11c-2.12,2.21-2.82,5.31-1.96,8.51.29,1.08.72,1.93,1.11,2.56-.11-.12-.23-.23-.34-.35l-.08-.08c-2.25-2.25-4.96-3.66-8.07-4.18-3.32-.57-6.92-1.23-10.99-2.02-.5-.1-1.54-.3-2.88-.3-2.23,0-4.3.56-6.15,1.66l-.53.31-.32.19-.26.26-2.02,2.02-.41.41-.23.53-.37.88c-1.77,4.15-.84,8.6,2.48,11.93l.05.05c2.82,2.79,5.62,5.58,8.41,8.38,0,0,3.5,3.5,5.86,5.86-3.63,4.14-6.62,7.72-9.4,11.46-.89-.13-1.75-.27-2.59-.42-.69-.12-1.38-.19-2.05-.19-3.35,0-6.33,1.53-8.41,4.31-.73.96-1.53,1.94-2.38,2.97l-.4.49c-3.84,4.66-2.59,9.79.2,12.58,1.25,1.25,2.85,2.13,4.76,2.62l.6.15c1.44.36,2.89.73,4.35,1.1.45,1.81.9,3.56,1.31,5.16.46,1.78,1.31,3.31,2.53,4.54,1.7,1.7,3.94,2.63,6.3,2.63,2.17,0,4.27-.77,6.06-2.21.48-.38.96-.77,1.44-1.17.86-.7,1.67-1.36,2.5-2,3.17-2.45,4.6-6.13,3.92-10.1-.17-1.01-.32-2.02-.48-3.07.61-.45,1.26-.96,1.91-1.49,3.15-2.61,6.28-5.28,9.31-7.86l8.53,8.53,3.8,3.81c.64.64,1.28,1.28,1.94,1.93,2.02,1.99,4.61,3.09,7.3,3.09.18,0,.37,0,.55-.02,2.9-.16,5.56-1.55,7.47-3.92,2.15-2.65,2.99-6.02,2.34-9.47l-.3-1.59c-.63-3.39-1.28-6.86-1.88-10.28-.53-2.99-1.9-5.61-4.07-7.78l-.05-.05c-.28-.28-.56-.55-.83-.83.11.08.23.15.34.23l.42.28c1.38.93,3.04,1.44,4.79,1.44,2.25,0,4.44-.86,5.99-2.37,2.84-2.75,3.01-6.75,1.91-9.49-.45-1.14-1.07-2.22-1.83-3.21-1.78-2.34-3.78-4.62-5.95-6.79-1.28-1.28-2.66-2.56-4.1-3.8-.46-1.39-1.22-2.64-2.25-3.66-1.02-1.02-2.26-1.78-3.64-2.24-1.14-1.33-2.36-2.65-3.64-3.92-1.5-1.5-3.14-3.01-4.85-4.47-1.37-1.17-2.78-2.06-3.9-2.78-1.38-.88-3-1.34-4.69-1.34h0Z"/><path class="cls-2" d="m66.99,67.32c-1.91-1.89-3.81-3.81-5.71-5.71l-13.75-13.75c-.74.66-1.53,1.37-2.34,2.06-4.14,3.52-8.25,7.05-12.43,10.52-1.54,1.27-3.2,2.39-4.84,3.54-.44.3-.55.6-.47,1.11.39,2.45.7,4.9,1.11,7.34.18,1.06-.09,1.84-.94,2.5-1.38,1.06-2.71,2.17-4.07,3.26-1.01.82-1.92.53-2.24-.73-.77-3.02-1.54-6.04-2.27-9.08-.13-.51-.36-.73-.86-.85-2.96-.72-5.91-1.47-8.86-2.22-1.52-.39-1.79-1.25-.78-2.47,1.01-1.23,2.03-2.46,2.99-3.74.7-.94,1.52-1.29,2.71-1.08,2.34.43,4.71.71,7.06,1.08.44.07.67-.03.93-.4,4.24-6.22,9.18-11.85,14.16-17.46.78-.87,1.55-1.74,2.23-2.51-.97-.9-1.93-1.73-2.82-2.62-5.62-5.6-11.21-11.23-16.85-16.81-.98-.96-1.38-1.94-.83-3.23l.91-.91c1.09-.65,2.23-.62,3.44-.39,3.72.72,7.44,1.42,11.17,2.06,1.52.26,2.76.92,3.84,2.01,3.16,3.2,6.36,6.38,9.54,9.56l.56.56,2.68-2.68c-.05-.13-.05-.21-.09-.25-1.24-1.52-1.2-2.4.16-3.76.55-.55,1.1-1.12,1.67-1.67,1.04-1.02,2.26-1.06,3.29-.06.45.45.85.6,1.53.55.73-.06,1.56.19,2.23.54.61.31,1.03.31,1.51-.1.2-.17.43-.3.74-.52-.75-.65-1.5-1.26-2.2-1.9-3.12-2.85-6.14-5.79-8.59-9.24-.19-.27-.4-.56-.48-.87-.08-.31-.15-.78,0-.95.17-.17.71-.18.94-.03,1.04.66,2.09,1.34,3.02,2.13,3.4,2.89,6.54,6.04,9.3,9.56.12.15.44.24.66.22,1.59-.15,2.27.53,2.11,2.11-.02.22.1.55.28.69,4.06,3.27,7.75,6.9,10.91,11.05.31.41.58.88.77,1.35.1.24.09.68-.07.83-.15.15-.63.19-.83.06-1.2-.8-2.43-1.59-3.53-2.52-2.95-2.5-5.66-5.24-8.11-8.24-.14-.18-.32-.33-.53-.54-.28.4-.58.74-.77,1.14-.08.17.03.47.12.68.32.76.91,1.5.95,2.26.05,1.06.17,1.94.88,2.8.58.7.29,1.78-.44,2.54-.68.7-1.37,1.4-2.07,2.07-.93.89-1.99.94-3.03.17-.13-.1-.27-.19-.46-.34l-2.73,2.73.52.52c3.08,3.08,6.15,6.17,9.25,9.24,1.02,1.01,1.65,2.16,1.9,3.59.7,3.99,1.45,7.96,2.19,11.94.21,1.12.02,2.13-.7,3.02-1.01,1.25-2.45,1.33-3.59.21Z"/></svg>