<?xml version="1.0" encoding="UTF-8"?><svg id="OBJECTS" xmlns="http://www.w3.org/2000/svg" xmlns:xlink="http://www.w3.org/1999/xlink" viewBox="0 0 384.81 139.84"><defs><style>.cls-1{fill:#f1f1c9;}.cls-2{fill:url(#Dégradé_sans_nom_61);}.cls-3{fill:url(#Dégradé_sans_nom_52);}.cls-4{fill:url(#Dégradé_sans_nom_61-2);}.cls-5{fill:url(#Dégradé_sans_nom_61-3);}.cls-6{fill:url(#Dégradé_sans_nom_61-6);}.cls-7{fill:url(#Dégradé_sans_nom_61-4);}.cls-8{fill:url(#Dégradé_sans_nom_61-5);}.cls-9{fill:url(#Dégradé_sans_nom_61-7);}</style><linearGradient id="Dégradé_sans_nom_52" x1="-15.04" y1="87.56" x2="369.23" y2="87.56" gradientTransform="translate(14.21 -15.53) rotate(-1.25)" gradientUnits="userSpaceOnUse"><stop offset="0" stop-color="#b9d948"/><stop offset="1" stop-color="#1e5649"/></linearGradient><linearGradient id="Dégradé_sans_nom_61" x1="51.43" y1="133.9" x2="51.43" y2="39.2" gradientTransform="translate(14.21 -15.53) rotate(-1.25)" gradientUnits="userSpaceOnUse"><stop offset="0" stop-color="#205648"/><stop offset="1" stop-color="#b9d946"/></linearGradient><linearGradient id="Dégradé_sans_nom_61-2" x1="100.58" y1="115.23" x2="100.58" y2="48.89" xlink:href="#Dégradé_sans_nom_61"/><linearGradient id="Dégradé_sans_nom_61-3" x1="142.96" y1="104.43" x2="142.96" y2="44.95" xlink:href="#Dégradé_sans_nom_61"/><linearGradient id="Dégradé_sans_nom_61-4" x1="192.88" y1="101.59" x2="192.88" y2="44.45" xlink:href="#Dégradé_sans_nom_61"/><linearGradient id="Dégradé_sans_nom_61-5" x1="226.08" y1="102.76" x2="226.08" y2="53.83" xlink:href="#Dégradé_sans_nom_61"/><linearGradient id="Dégradé_sans_nom_61-6" x1="262.1" y1="119.09" x2="262.1" y2="52.24" xlink:href="#Dégradé_sans_nom_61"/><linearGradient id="Dégradé_sans_nom_61-7" x1="314.81" y1="135.89" x2="314.81" y2="52" xlink:href="#Dégradé_sans_nom_61"/></defs><g id="title"><path class="cls-3" d="m375.51,21.65c-4.43-4.43-10.25-7.91-17.31-10.34-5.5-1.88-11.67-3.11-18.34-3.66-2.9-.26-5.81-.36-8.65-.3-9.94.22-18.79,2.48-26.33,6.74-3.21-1.69-6.83-3-10.81-3.91-4.87-1.07-10.22-1.55-15.9-1.42-8.26.18-15.69,1.74-22.12,4.63-2.08-.76-4.32-1.33-6.68-1.69-2.18-.34-4.25-.51-6.56-.54h-.36c-.85,0-1.56,0-2.25.02t-15.91.6c-1.77.07-3.24,1.38-3.52,3.13l-.24,1.53c-2.13-3.8-5.08-6.97-8.74-9.3-4.75-3.03-10.38-4.5-16.74-4.36-1,.02-2.06.09-3.4.21-2.21.23-4.45.63-6.87,1.23-1.61.41-2.8.75-3.69,1.02l-1.76.53c-4.21-1.07-8.8-1.67-13.66-1.77-9.14-.23-17.64,1.46-25.48,4.98-3.81,1.72-7.34,3.86-10.52,6.38-2.08-1.74-4.38-3.14-6.89-4.17-4.78-1.99-10.16-2.6-15.84-1.79-2.07-1.99-4.43-3.73-7.05-5.2C92.27-.05,82.9-1.06,72.47,1.1l-8.13,1.69c-1.03.21-1.92.86-2.45,1.77l-5.13,8.88c-1.04-.72-2.14-1.37-3.28-1.95-4.44-2.23-9.51-3.3-15.05-3.18-2.65.06-5.45.39-8.57,1.02-2.79.58-5.64,1.4-8.48,2.43-2.03.74-3.79,1.42-5.07,1.96l-14.02,5.9c-1.63.69-2.55,2.43-2.19,4.16l18.64,90.21c2.59,12.48,9.44,18.76,14.72,21.83,6.9,4.03,15.43,5,24.94,3.03,2.95-.61,5.87-1.44,8.65-2.47,2.94-1.06,5.3-2.11,7.22-3.2l10.4-5.87c6.61,2.86,14.06,3.51,21.54,1.96,6.87-1.43,12.99-4.77,17.8-9.72,2.89-.12,5.88-.63,9.1-1.54,2.37-.67,4.68-1.48,6.82-2.4,2.71-1.15,4.8-2.24,6.58-3.44l7.69-5.17c3,.48,6.11.76,9.23.83,4.7.12,9.65-.31,14.43-1.29,4.95-1.01,8.96-2.29,12.18-3.88,3.3,1.13,6.79,1.66,10.42,1.58.79-.02,1.6-.06,2.66-.16l24.43-2.52c2.51,1.08,5.29,1.86,8.29,2.32.82.13,1.65.23,2.46.32,1.53,2.11,3.33,4.04,5.37,5.74,4.64,3.9,10.37,6.71,17.02,8.34,5.25,1.3,11.05,1.9,17.23,1.76,3.19-.07,6.29-.33,9.23-.78.17.19.35.37.52.55,4.67,4.85,10.71,8.65,17.95,11.29,5.87,2.15,12.53,3.56,19.83,4.2,3.2.28,6.32.38,9.29.32,11.78-.26,21.93-3.21,30.17-8.77,11.54-7.79,18.55-19.74,19.73-33.64.92-10.84-1.54-20.82-7.12-29.06.3-.36.59-.73.87-1.1,3.65-4.76,5.78-10.37,6.32-16.67,0,0,0,0,0,0,.77-9.23-2.49-18.01-9.18-24.72Z"/><path class="cls-2" d="m109.82,100.54c-.32.82-.76,1.61-1.34,2.34-1.91,2.47-4.38,4-7.42,4.64-3.32.68-6.21.41-8.68-.81-2.47-1.22-4.89-2.74-7.28-4.54l-29.36-21.95.35,1.68,6.6,31.96c-.77.44-2.05,1.01-3.83,1.66-1.8.67-3.66,1.19-5.59,1.58-4.17.87-7.24.71-9.25-.46-2.04-1.18-3.41-3.55-4.16-7.15l-4.8-23.24-5.51-26.58-5.26-25.46c.88-.37,2.24-.9,4.08-1.57,1.84-.67,3.64-1.17,5.39-1.54,4.06-.83,7.11-.75,9.15.28,2.02,1.01,3.45,3.46,4.25,7.33l3.44,16.61,1.82,8.9,23.93-41.35c5.27-1.1,9.31-.85,12.14.73,2.04,1.14,3.5,2.61,4.35,4.37.33.68.57,1.39.73,2.15.44,2.14.33,4.25-.34,6.36-.38,1.17-.95,2.46-1.73,3.83-.61,1.09-1.34,2.21-2.18,3.4l-16.09,24.48c6.92,4.85,13.27,9.28,18.99,13.31,5.3,3.72,9.87,6.88,13.72,9.53,1.54,1.04,2.97,2.01,4.29,2.91.52,2.45.38,4.66-.41,6.6Z"/><path class="cls-4" d="m133.5,93.74c-.58.38-1.52.87-2.88,1.43-1.34.57-2.74,1.06-4.19,1.48-2.85.8-5.07.93-6.64.4-.17-.05-.32-.12-.47-.19-1.61-.74-2.81-2.51-3.6-5.29l-1.79-6.31h-.02s-3.13-11.02-3.13-11.02l-5.71-20.02-3.73-13.06v-.02s-1.77-6.22-1.77-6.22c.66-.33,1.67-.81,3.04-1.44.15-.06.31-.14.46-.2,1.21-.53,2.42-.96,3.67-1.3,3-.86,5.29-.95,6.92-.28,1.61.67,2.83,2.46,3.67,5.38l3.59,12.62,2.51,8.8v.04s3.21,11.19,3.21,11.19l2.31,8.1,4.53,15.92Z"/><path class="cls-5" d="m184.87,56.81l-.45,19.28c-.04,1.61-.34,2.88-.96,3.74-.02.06-.07.11-.11.17-.67.88-1.76,1.72-3.24,2.48-1.7.91-4.13,1.66-7.3,2.31-3.17.62-6.33.92-9.48.84-5.95-.13-11.25-1.29-15.93-3.47-4.1-1.91-7.42-4.67-9.96-8.3-.36-.51-.71-1.06-1.03-1.61-2.42-4.02-3.68-9.1-3.74-15.19-.02-.02-.02-.04,0-.06-.01-.54-.02-1.11,0-1.67.15-6.56,1.66-12,4.53-16.36,2.89-4.36,6.72-7.61,11.51-9.77,4.79-2.14,10.04-3.14,15.78-3.03,3.84.1,7.14.58,9.94,1.45,1.29.4,2.44.85,3.46,1.39,1.18.6,2.18,1.3,2.97,2.08,1.48,1.47,2.2,3.12,2.15,4.97-.03,1.37-.41,2.58-1.14,3.64-.74,1.07-1.61,1.87-2.6,2.41-.02,0-.02-.02-.02-.02h-.02c-1.54-1.02-3.43-1.98-5.75-2.89-2.33-.93-5.07-1.43-8.22-1.49-3.41-.09-6.47.57-9.2,1.96-2.71,1.39-4.85,3.46-6.38,6.16-1.55,2.72-2.37,5.98-2.45,9.74-.1,4.08.55,7.51,1.95,10.25s3.35,4.81,5.88,6.2c2.55,1.41,5.45,2.12,8.71,2.2,1.56.04,2.96-.08,4.25-.37,1.25-.27,2.25-.57,2.92-.86l.26-10.84-10.86-.26c-.37-.62-.68-1.41-.96-2.39-.3-.96-.43-1.99-.4-3.12.03-1.91.52-3.31,1.45-4.18.91-.87,2.12-1.29,3.6-1.26l15.58.36c.2,0,.39.01.57.04,1.39.12,2.49.59,3.33,1.45.93.94,1.38,2.28,1.35,4.01Z"/><path class="cls-1" d="m367.48,55.18c2.12-2.77,3.37-6.09,3.69-9.88.45-5.45-1.41-10.45-5.43-14.47-3.05-3.04-7.19-5.47-12.34-7.25-4.48-1.53-9.63-2.55-15.3-3.02-2.49-.22-4.91-.3-7.21-.25-8.62.19-16.02,2.26-22.03,6.15-1.72,1.11-3.3,2.35-4.71,3.71-.67-.82-1.44-1.56-2.31-2.26-2.9-2.34-6.64-4.04-11.15-5.07-3.83-.84-8.16-1.23-12.84-1.13-9.05.2-16.52,2.36-22.28,6.47-2.21-1.9-5.1-3.11-8.8-3.68-1.45-.23-2.95-.36-4.54-.38-.94,0-1.7,0-2.28.01l-8.16.31-5.35,34-12.6,1.29-3.06-29.74c-.71-6.87-3.95-10.26-6.56-11.93-2.55-1.63-5.76-2.41-9.49-2.33-.74.02-1.52.07-2.37.14-1.61.16-3.25.46-4.96.89-1.42.36-2.47.66-3.15.86l-5.52,1.68c-.5-.17-1.03-.35-1.55-.52-3.62-1.11-7.81-1.74-12.46-1.84-.78-.02-1.56-.02-2.31,0-6.24.14-12.11,1.43-17.49,3.84-6.38,2.88-11.58,7.27-15.43,13.09-.84,1.28-1.61,2.63-2.26,4.05l-.96-3.39c-1.64-5.76-4.69-9.6-9.06-11.39-1.94-.81-4.12-1.19-6.47-1.14-2,.04-4.12.39-6.49,1.07-1.01.28-2,.62-3,.99-1.67-3.52-4.45-6.42-8.24-8.54-3.24-1.8-7.09-2.66-11.48-2.56-2.17.05-4.55.32-7.04.84l-4.07.85-13.83,23.91-.35-1.71c-1.41-6.76-4.49-11.38-9.19-13.76-2.55-1.28-5.58-1.88-8.96-1.8-1.92.04-3.94.29-6.2.75-2.18.45-4.42,1.1-6.7,1.92-2,.73-3.51,1.32-4.48,1.73l-7.01,2.95,17.1,82.74c1.3,6.27,4.18,10.72,8.57,13.27,2.72,1.59,5.99,2.33,9.75,2.25,1.87-.04,3.85-.27,6.04-.72,2.41-.5,4.73-1.18,6.86-1.96,2.24-.81,3.97-1.57,5.25-2.3l5.87-3.31-3.39-16.35,9.79,7.3c2.84,2.14,5.77,3.98,8.77,5.47,3.01,1.47,6.34,2.19,9.88,2.12,1.55-.03,3.16-.22,4.76-.55,5.18-1.08,9.64-3.86,12.88-8.06.56-.72,1.13-1.56,1.67-2.52,1.53.45,3.2.65,4.96.61,2-.04,4.14-.41,6.53-1.09,1.86-.52,3.64-1.15,5.27-1.86,1.89-.8,3.3-1.52,4.41-2.26l5.58-3.75-2.25-7.88c.49.27.99.52,1.52.74,5.82,2.72,12.42,4.19,19.63,4.35.76.02,1.52.02,2.3,0,3.05-.07,6.16-.41,9.22-1.03,4.07-.83,7.27-1.86,9.67-3.14,1.76-.89,3.22-1.87,4.45-2.99,3,2.42,6.73,3.65,10.78,3.56.52-.01,1.05-.04,1.61-.09l25.66-2.65c.83-.09,1.64-.24,2.42-.44h.02c2.07,1.49,4.68,2.47,7.92,2.97,1.49.23,2.95.36,4.32.41.67.02,1.24.03,1.74.02.87-.02,1.63-.09,2.33-.2h.04c.92,3.33,2.88,6.31,5.78,8.72,3.11,2.62,7.1,4.53,11.81,5.69,4.11,1.02,8.77,1.49,13.82,1.38,5.7-.12,10.77-.96,15.18-2.48.94,2.22,2.35,4.32,4.19,6.22,3.28,3.41,7.69,6.15,13.06,8.1,4.82,1.76,10.38,2.92,16.48,3.45,2.75.24,5.4.33,7.89.27,9.25-.2,17.06-2.41,23.21-6.56,8.34-5.63,13.21-13.93,14.07-23.99.8-9.39-1.66-17.37-7.31-23.74-1.71-1.94-3.67-3.75-5.88-5.43l3.38-2.13c2.41-1.52,4.5-3.43,6.19-5.65Zm-265.52,21.83c-1.43-1.01-2.9-2.05-4.42-3.11l-11.64-8.13,8.96-13.66,7.1,24.9Zm7.86,23.53c-.32.82-.76,1.61-1.34,2.34-1.91,2.47-4.38,4-7.42,4.64-3.32.68-6.21.41-8.68-.81-2.47-1.22-4.89-2.74-7.28-4.54l-29.36-21.95.35,1.68,6.6,31.96c-.77.44-2.05,1.01-3.83,1.66-1.8.67-3.66,1.19-5.59,1.58-4.17.87-7.24.71-9.25-.46-2.04-1.18-3.41-3.55-4.16-7.15l-4.8-23.24-5.51-26.58-5.26-25.46c.88-.37,2.24-.9,4.08-1.57,1.84-.67,3.64-1.17,5.39-1.54,4.06-.83,7.11-.75,9.15.28,2.02,1.01,3.45,3.46,4.25,7.33l3.44,16.61,1.82,8.9,23.93-41.35c5.27-1.1,9.31-.85,12.14.73,2.04,1.14,3.5,2.61,4.35,4.37.33.68.57,1.39.73,2.15.44,2.14.33,4.25-.34,6.36-.38,1.17-.95,2.46-1.73,3.83-.61,1.09-1.34,2.21-2.18,3.4l-16.09,24.48c6.92,4.85,13.27,9.28,18.99,13.31,5.3,3.72,9.87,6.88,13.72,9.53,1.54,1.04,2.97,2.01,4.29,2.91.52,2.45.38,4.66-.41,6.6Zm20.81-5.36c-1.34.57-2.74,1.06-4.19,1.48-2.85.8-5.07.93-6.64.4-.17-.05-.32-.12-.47-.19-1.61-.74-2.81-2.51-3.6-5.29l-1.79-6.31h-.02s-3.13-11.02-3.13-11.02l-5.71-20.02-3.73-13.06v-.02s-1.77-6.22-1.77-6.22c.66-.33,1.67-.81,3.04-1.44.15-.06.31-.14.46-.2,1.21-.53,2.42-.96,3.67-1.3,3-.86,5.29-.95,6.92-.28,1.61.67,2.83,2.46,3.67,5.38l3.59,12.62,2.51,8.8v.04s3.21,11.19,3.21,11.19l2.31,8.1,4.53,15.92c-.58.38-1.52.87-2.88,1.43Zm53.8-19.08c-.04,1.61-.34,2.88-.96,3.74-.02.06-.07.11-.11.17-.67.88-1.76,1.72-3.24,2.48-1.7.91-4.13,1.66-7.3,2.31-3.17.62-6.33.92-9.48.84-5.95-.13-11.25-1.29-15.93-3.47-4.1-1.91-7.42-4.67-9.96-8.3-.36-.51-.71-1.06-1.03-1.61-2.42-4.02-3.68-9.1-3.74-15.19-.02-.02-.02-.04,0-.06-.01-.54-.02-1.11,0-1.67.15-6.56,1.66-12,4.53-16.36,2.89-4.36,6.72-7.61,11.51-9.77,4.79-2.14,10.04-3.14,15.78-3.03,3.84.1,7.14.58,9.94,1.45,1.29.4,2.44.85,3.46,1.39,1.18.6,2.18,1.3,2.97,2.08,1.48,1.47,2.2,3.12,2.15,4.97-.03,1.37-.41,2.58-1.14,3.64-.74,1.07-1.61,1.87-2.6,2.41-.02,0-.02-.02-.02-.02h-.02c-1.54-1.02-3.43-1.98-5.75-2.89-2.33-.93-5.07-1.43-8.22-1.49-3.41-.09-6.47.57-9.2,1.96-2.71,1.39-4.85,3.46-6.38,6.16-1.55,2.72-2.37,5.98-2.45,9.74-.1,4.08.55,7.51,1.95,10.25s3.35,4.81,5.88,6.2c2.55,1.41,5.45,2.12,8.71,2.2,1.56.04,2.96-.08,4.25-.37,1.25-.27,2.25-.57,2.92-.86l.26-10.84-10.86-.26c-.37-.62-.68-1.41-.96-2.39-.3-.96-.43-1.99-.4-3.12.03-1.91.52-3.31,1.45-4.18.91-.87,2.12-1.29,3.6-1.26l15.58.36c.2,0,.39.01.57.04,1.39.12,2.49.59,3.33,1.45.93.94,1.38,2.28,1.35,4.01l-.45,19.28Zm44.88,1.41c-.75,1.07-1.91,1.69-3.44,1.85l-1.88.19-23.76,2.44c-2.29.24-4.17-.24-5.66-1.47-.45-.36-.83-.78-1.16-1.23v-.02c-.8-1.08-1.27-2.4-1.44-3.99l-1.44-14.02-1.81-17.51-1.78-17.25c.42-.12,1.01-.3,1.77-.5.31-.08.64-.16,1.01-.26,1.23-.3,2.45-.52,3.62-.63,2.7-.28,4.68-.03,5.96.78,1.26.81,2.02,2.49,2.28,5.08l1.17,11.34,1.81,17.53,1.03,10.05,19.38-2,3.03-.31c.49.58.95,1.31,1.36,2.23.41.94.65,1.99.79,3.15.19,1.96-.09,3.48-.84,4.55Zm21.42-37.31l-1.48,9.36-2.03,12.95-.29,1.88-2.8,17.8c-.5.07-1.26.1-2.31.07-1.06-.03-2.11-.14-3.21-.3-.37-.07-.73-.13-1.04-.2-1.77-.39-2.98-1.01-3.67-1.83-.82-.96-1.07-2.48-.75-4.56l2.02-12.82.11-.69,2.23-14.16,2.24-14.31c.54-.01,1.33-.03,2.43-.02,1.07.01,2.13.1,3.17.26,1.52.24,2.74.63,3.62,1.14.39.23.73.48,1,.77.85.93,1.11,2.48.77,4.63Zm45.57,51.76c-1.56,1.33-3.37,2.42-5.45,3.3-3.82,1.6-8.48,2.48-14.03,2.6-4.26.09-8.04-.27-11.39-1.1-3.37-.83-6.05-2.11-8.06-3.8-2.02-1.68-3.06-3.67-3.11-5.97-.04-1.81.46-3.36,1.53-4.68,1.05-1.3,2.23-2.29,3.53-2.95,1.9,1.5,4.28,2.81,7.12,3.97,2.84,1.16,6.04,1.68,9.59,1.61,3.74-.08,6.43-.81,8.03-2.19,1.6-1.41,2.4-3.03,2.35-4.92-.04-1.72-.72-3.11-2.03-4.16-1.3-1.06-3.21-1.95-5.74-2.65l-5.55-1.66c-3.78-1.16-7.13-2.47-10.05-3.95-2.55-1.28-4.58-2.9-6.12-4.88-.25-.29-.48-.6-.69-.91-1.61-2.41-2.45-5.46-2.53-9.22-.13-5.77,1.96-10.41,6.25-13.91.02-.02.04-.02.06-.04,4.31-3.48,10.35-5.3,18.08-5.47,3.96-.09,7.5.22,10.61.92,3.11.71,5.56,1.79,7.37,3.23,1.06.85,1.82,1.81,2.27,2.91.33.77.5,1.62.52,2.51.03,1.59-.31,2.97-1,4.13-.68,1.11-1.51,2.09-2.55,2.91-.04.06-.09.09-.15.13-1.63-1.08-3.78-1.99-6.43-2.73-2.66-.74-5.58-1.08-8.78-1.01-3.33.07-5.84.68-7.48,1.79-1.64,1.11-2.44,2.53-2.41,4.27.03,1.39.61,2.51,1.74,3.35,1.13.85,2.81,1.59,5.07,2.22l5.76,1.65c5.96,1.7,10.66,3.97,14.09,6.89.23.16.45.36.68.56,2.42,2.21,4.03,4.95,4.83,8.26v.02c.35,1.44.53,2.95.56,4.58.02.7,0,1.39-.07,2.08-.36,4.91-2.49,9.02-6.4,12.3Zm60.07-38.95c-1.89-1.57-4.43-3-7.67-4.28-3.21-1.28-6.82-2.11-10.83-2.45-4.17-.37-7.37.05-9.58,1.23-2.22,1.16-3.4,2.83-3.59,5-.15,1.74.44,3.21,1.74,4.42,1.29,1.21,3.29,2.37,6.02,3.48l6.97,2.83c7.71,3.13,13.54,6.89,17.45,11.3,3.93,4.41,5.59,10.01,5.01,16.8-.64,7.33-3.97,13.03-10.01,17.1-6.06,4.08-14.43,5.67-25.13,4.75-5.32-.46-10.01-1.43-14.1-2.93-4.09-1.48-7.26-3.41-9.55-5.81-1.23-1.27-2.11-2.62-2.61-4.05-.43-1.23-.59-2.51-.47-3.84.19-2.26,1.04-4.15,2.52-5.63,1.49-1.5,3.09-2.57,4.82-3.22.68.65,1.4,1.3,2.19,1.91,1.77,1.41,3.82,2.75,6.18,3.99,3.39,1.83,7.3,2.93,11.76,3.32,4.69.4,8.13-.16,10.33-1.67,2.19-1.53,3.39-3.46,3.59-5.82.17-2.17-.48-3.99-1.97-5.49-1.5-1.49-3.77-2.84-6.81-4.07l-6.75-2.82c-4.56-1.96-8.57-4.05-12.01-6.29-1.3-.82-2.46-1.72-3.5-2.68t-.02-.02c-1.74-1.63-3.15-3.45-4.21-5.44-.6-1.13-1.07-2.37-1.39-3.67-.57-2.15-.77-4.58-.6-7.26l.02-.02c0-.3.02-.61.05-.93.35-4.27,1.62-7.92,3.83-10.99,1.51-2.14,3.47-3.98,5.86-5.53,5.84-3.79,13.64-5.28,23.4-4.44,4.95.41,9.34,1.28,13.13,2.56,3.79,1.31,6.71,2.96,8.77,5.03,2.06,2.07,2.97,4.43,2.75,7.14-.18,2-.79,3.68-1.82,5.04-1.04,1.36-2.3,2.49-3.78,3.43Z"/><path class="cls-7" d="m229.3,77.51c-.75,1.07-1.91,1.69-3.44,1.85l-1.88.19-23.76,2.44c-2.29.24-4.17-.24-5.66-1.47-.45-.36-.83-.78-1.16-1.23v-.02c-.8-1.08-1.27-2.4-1.44-3.99l-1.44-14.02-1.81-17.51-1.78-17.25c.42-.12,1.01-.3,1.77-.5.31-.08.64-.16,1.01-.26,1.23-.3,2.45-.52,3.62-.63,2.7-.28,4.68-.03,5.96.78,1.26.81,2.02,2.49,2.28,5.08l1.17,11.34,1.81,17.53,1.03,10.05,19.38-2,3.03-.31c.49.58.95,1.31,1.36,2.23.41.94.65,1.99.79,3.15.19,1.96-.09,3.48-.84,4.55Z"/><path class="cls-8" d="m250.72,40.19l-1.48,9.36-2.03,12.95-.29,1.88-2.8,17.8c-.5.07-1.26.1-2.31.07-1.06-.03-2.11-.14-3.21-.3-.37-.07-.73-.13-1.04-.2-1.77-.39-2.98-1.01-3.67-1.83-.82-.96-1.07-2.48-.75-4.56l2.02-12.82.11-.69,2.23-14.16,2.24-14.31c.54-.01,1.33-.03,2.43-.02,1.07.01,2.13.1,3.17.26,1.52.24,2.74.63,3.62,1.14.39.23.73.48,1,.77.85.93,1.11,2.48.77,4.63Z"/><path class="cls-6" d="m302.75,77.57c.02.7,0,1.39-.07,2.08-.36,4.91-2.49,9.02-6.4,12.3-1.56,1.33-3.37,2.42-5.45,3.3-3.82,1.6-8.48,2.48-14.03,2.6-4.26.09-8.04-.27-11.39-1.1-3.37-.83-6.05-2.11-8.06-3.8-2.02-1.68-3.06-3.67-3.11-5.97-.04-1.81.46-3.36,1.53-4.68,1.05-1.3,2.23-2.29,3.53-2.95,1.9,1.5,4.28,2.81,7.12,3.97,2.84,1.16,6.04,1.68,9.59,1.61,3.74-.08,6.43-.81,8.03-2.19,1.6-1.41,2.4-3.03,2.35-4.92-.04-1.72-.72-3.11-2.03-4.16-1.3-1.06-3.21-1.95-5.74-2.65l-5.55-1.66c-3.78-1.16-7.13-2.47-10.05-3.95-2.55-1.28-4.58-2.9-6.12-4.88-.25-.29-.48-.6-.69-.91-1.61-2.41-2.45-5.46-2.53-9.22-.13-5.77,1.96-10.41,6.25-13.91.02-.02.04-.02.06-.04,4.31-3.48,10.35-5.3,18.08-5.47,3.96-.09,7.5.22,10.61.92,3.11.71,5.56,1.79,7.37,3.23,1.06.85,1.82,1.81,2.27,2.91.33.77.5,1.62.52,2.51.03,1.59-.31,2.97-1,4.13-.68,1.11-1.51,2.09-2.55,2.91-.04.06-.09.09-.15.13-1.63-1.08-3.78-1.99-6.43-2.73-2.66-.74-5.58-1.08-8.78-1.01-3.33.07-5.84.68-7.48,1.79-1.64,1.11-2.44,2.53-2.41,4.27.03,1.39.61,2.51,1.74,3.35,1.13.85,2.81,1.59,5.07,2.22l5.76,1.65c5.96,1.7,10.66,3.97,14.09,6.89.23.16.45.36.68.56,2.42,2.21,4.03,4.95,4.83,8.26v.02c.35,1.44.53,2.95.56,4.58Z"/><path class="cls-9" d="m324.68,52.5c-.15,1.74.44,3.21,1.74,4.42,1.29,1.21,3.29,2.37,6.02,3.48l6.97,2.83c7.71,3.13,13.54,6.89,17.45,11.3,3.93,4.41,5.59,10.01,5.01,16.8-.64,7.33-3.97,13.03-10.01,17.1-6.06,4.08-14.43,5.67-25.13,4.75-5.32-.46-10.01-1.43-14.1-2.93-4.09-1.48-7.26-3.41-9.55-5.81-1.23-1.27-2.11-2.62-2.61-4.05-.43-1.23-.59-2.51-.47-3.84.19-2.26,1.04-4.15,2.52-5.63,1.49-1.5,3.09-2.57,4.82-3.22.68.65,1.4,1.3,2.19,1.91,1.77,1.41,3.82,2.75,6.18,3.99,3.39,1.83,7.3,2.93,11.76,3.32,4.69.4,8.13-.16,10.33-1.67,2.19-1.53,3.39-3.46,3.59-5.82.17-2.17-.48-3.99-1.97-5.49-1.5-1.49-3.77-2.84-6.81-4.07l-6.75-2.82c-4.56-1.96-8.57-4.05-12.01-6.29-1.3-.82-2.46-1.72-3.5-2.68t-.02-.02c-1.74-1.63-3.15-3.45-4.21-5.44-.6-1.13-1.07-2.37-1.39-3.67-.57-2.15-.77-4.58-.6-7.26l.02-.02c0-.3.02-.61.05-.93.35-4.27,1.62-7.92,3.83-10.99,1.51-2.14,3.47-3.98,5.86-5.53,5.84-3.79,13.64-5.28,23.4-4.44,4.95.41,9.34,1.28,13.13,2.56,3.79,1.31,6.71,2.96,8.77,5.03,2.06,2.07,2.97,4.43,2.75,7.14-.18,2-.79,3.68-1.82,5.04-1.04,1.36-2.3,2.49-3.78,3.43-1.89-1.57-4.43-3-7.67-4.28-3.21-1.28-6.82-2.11-10.83-2.45-4.17-.37-7.37.05-9.58,1.23-2.22,1.16-3.4,2.83-3.59,5Z"/></g></svg>